<mxfile host="Electron" modified="2023-12-20T16:42:07.400Z" agent="Mozilla/5.0 (Windows NT 10.0; Win64; x64) AppleWebKit/537.36 (KHTML, like Gecko) draw.io/22.1.11 Chrome/114.0.5735.289 Electron/25.9.8 Safari/537.36" etag="Hlo5dmheKAj7LW7Zs33X" version="22.1.11" type="device">
  <diagram name="Страница — 1" id="zEoly0izdH_8McJYre1i">
    <mxGraphModel dx="1358" dy="698" grid="1" gridSize="10" guides="1" tooltips="1" connect="1" arrows="1" fold="1" page="1" pageScale="1" pageWidth="850" pageHeight="1100" math="0" shadow="0">
      <root>
        <mxCell id="0" />
        <mxCell id="1" parent="0" />
        <mxCell id="u0Y2jchmrEOMAnDfJ7o5-1" value="Employee" style="shape=umlActor;verticalLabelPosition=bottom;verticalAlign=top;html=1;outlineConnect=0;" vertex="1" parent="1">
          <mxGeometry x="50" y="140" width="30" height="60" as="geometry" />
        </mxCell>
        <mxCell id="u0Y2jchmrEOMAnDfJ7o5-2" value="Administrative" style="shape=umlActor;verticalLabelPosition=bottom;verticalAlign=top;html=1;outlineConnect=0;" vertex="1" parent="1">
          <mxGeometry x="250" y="140" width="30" height="60" as="geometry" />
        </mxCell>
        <mxCell id="u0Y2jchmrEOMAnDfJ7o5-3" value="Research" style="shape=umlActor;verticalLabelPosition=bottom;verticalAlign=top;html=1;outlineConnect=0;" vertex="1" parent="1">
          <mxGeometry x="80" y="350" width="30" height="60" as="geometry" />
        </mxCell>
        <mxCell id="u0Y2jchmrEOMAnDfJ7o5-4" value="Dean" style="shape=umlActor;verticalLabelPosition=bottom;verticalAlign=top;html=1;outlineConnect=0;" vertex="1" parent="1">
          <mxGeometry x="260" y="350" width="30" height="60" as="geometry" />
        </mxCell>
        <mxCell id="u0Y2jchmrEOMAnDfJ7o5-5" value="Lecturer" style="shape=umlActor;verticalLabelPosition=bottom;verticalAlign=top;html=1;outlineConnect=0;" vertex="1" parent="1">
          <mxGeometry x="180" y="570" width="30" height="60" as="geometry" />
        </mxCell>
        <mxCell id="u0Y2jchmrEOMAnDfJ7o5-6" value="" style="verticalLabelPosition=bottom;verticalAlign=top;html=1;shape=mxgraph.basic.rect;fillColor2=none;strokeWidth=1;size=20;indent=5;" vertex="1" parent="1">
          <mxGeometry x="425" y="90" width="745" height="580" as="geometry" />
        </mxCell>
        <mxCell id="u0Y2jchmrEOMAnDfJ7o5-8" value="System" style="text;html=1;strokeColor=none;fillColor=none;align=center;verticalAlign=middle;whiteSpace=wrap;rounded=0;" vertex="1" parent="1">
          <mxGeometry x="780" y="90" width="60" height="30" as="geometry" />
        </mxCell>
        <mxCell id="u0Y2jchmrEOMAnDfJ7o5-9" value="Управление университетом" style="ellipse;whiteSpace=wrap;html=1;align=center;" vertex="1" parent="1">
          <mxGeometry x="490" y="130" width="210" height="70" as="geometry" />
        </mxCell>
        <mxCell id="u0Y2jchmrEOMAnDfJ7o5-10" value="Управление кафедрой" style="ellipse;whiteSpace=wrap;html=1;align=center;" vertex="1" parent="1">
          <mxGeometry x="880" y="185" width="180" height="60" as="geometry" />
        </mxCell>
        <mxCell id="u0Y2jchmrEOMAnDfJ7o5-11" value="Участие в научно-исследовательских проектах" style="ellipse;whiteSpace=wrap;html=1;align=center;" vertex="1" parent="1">
          <mxGeometry x="930" y="460" width="210" height="80" as="geometry" />
        </mxCell>
        <mxCell id="u0Y2jchmrEOMAnDfJ7o5-12" value="Проводить учебные занятия" style="ellipse;whiteSpace=wrap;html=1;align=center;" vertex="1" parent="1">
          <mxGeometry x="760" y="565" width="180" height="70" as="geometry" />
        </mxCell>
        <mxCell id="u0Y2jchmrEOMAnDfJ7o5-13" value="Управление факультетом&lt;br&gt;&lt;br&gt;&lt;b&gt;extension points&lt;br&gt;&lt;/b&gt;ExtensionPoint" style="ellipse;whiteSpace=wrap;html=1;align=center;" vertex="1" parent="1">
          <mxGeometry x="702.5" y="320" width="190" height="100" as="geometry" />
        </mxCell>
        <mxCell id="u0Y2jchmrEOMAnDfJ7o5-14" value="Проведение научных исследований&lt;br&gt;&lt;b&gt;extension points&lt;br style=&quot;border-color: var(--border-color);&quot;&gt;&lt;/b&gt;ExtensionPoint" style="ellipse;whiteSpace=wrap;html=1;align=center;" vertex="1" parent="1">
          <mxGeometry x="510" y="450" width="170" height="80" as="geometry" />
        </mxCell>
        <mxCell id="u0Y2jchmrEOMAnDfJ7o5-17" value="" style="endArrow=none;startArrow=open;html=1;rounded=0;exitX=1;exitY=0;exitDx=0;exitDy=0;dashed=1;startFill=0;endFill=0;" edge="1" parent="1" source="u0Y2jchmrEOMAnDfJ7o5-13" target="u0Y2jchmrEOMAnDfJ7o5-10">
          <mxGeometry width="50" height="50" relative="1" as="geometry">
            <mxPoint x="830" y="340" as="sourcePoint" />
            <mxPoint x="880" y="290" as="targetPoint" />
          </mxGeometry>
        </mxCell>
        <mxCell id="u0Y2jchmrEOMAnDfJ7o5-18" value="" style="endArrow=none;startArrow=open;html=1;rounded=0;entryX=0.92;entryY=0.755;entryDx=0;entryDy=0;entryPerimeter=0;exitX=0.255;exitY=0.098;exitDx=0;exitDy=0;exitPerimeter=0;dashed=1;endFill=0;startFill=0;" edge="1" parent="1" source="u0Y2jchmrEOMAnDfJ7o5-13" target="u0Y2jchmrEOMAnDfJ7o5-9">
          <mxGeometry width="50" height="50" relative="1" as="geometry">
            <mxPoint x="620" y="280" as="sourcePoint" />
            <mxPoint x="670" y="230" as="targetPoint" />
          </mxGeometry>
        </mxCell>
        <mxCell id="u0Y2jchmrEOMAnDfJ7o5-19" value="" style="endArrow=none;startArrow=open;html=1;rounded=0;exitX=1;exitY=0.5;exitDx=0;exitDy=0;entryX=0.011;entryY=0.377;entryDx=0;entryDy=0;entryPerimeter=0;dashed=1;startFill=0;endFill=0;" edge="1" parent="1" source="u0Y2jchmrEOMAnDfJ7o5-14" target="u0Y2jchmrEOMAnDfJ7o5-11">
          <mxGeometry width="50" height="50" relative="1" as="geometry">
            <mxPoint x="750" y="500" as="sourcePoint" />
            <mxPoint x="930" y="480" as="targetPoint" />
          </mxGeometry>
        </mxCell>
        <mxCell id="u0Y2jchmrEOMAnDfJ7o5-20" value="" style="endArrow=none;html=1;rounded=0;entryX=0;entryY=0.5;entryDx=0;entryDy=0;" edge="1" parent="1" source="u0Y2jchmrEOMAnDfJ7o5-5" target="u0Y2jchmrEOMAnDfJ7o5-12">
          <mxGeometry width="50" height="50" relative="1" as="geometry">
            <mxPoint x="250" y="610" as="sourcePoint" />
            <mxPoint x="750" y="590" as="targetPoint" />
          </mxGeometry>
        </mxCell>
        <mxCell id="u0Y2jchmrEOMAnDfJ7o5-24" value="" style="endArrow=block;html=1;rounded=0;endFill=0;" edge="1" parent="1">
          <mxGeometry width="50" height="50" relative="1" as="geometry">
            <mxPoint x="190" y="565" as="sourcePoint" />
            <mxPoint x="140" y="445" as="targetPoint" />
          </mxGeometry>
        </mxCell>
        <mxCell id="u0Y2jchmrEOMAnDfJ7o5-25" value="" style="endArrow=none;html=1;rounded=0;endFill=0;" edge="1" parent="1">
          <mxGeometry width="50" height="50" relative="1" as="geometry">
            <mxPoint x="510" y="490" as="sourcePoint" />
            <mxPoint x="130" y="420" as="targetPoint" />
          </mxGeometry>
        </mxCell>
        <mxCell id="u0Y2jchmrEOMAnDfJ7o5-26" value="" style="endArrow=block;html=1;rounded=0;endFill=0;" edge="1" parent="1">
          <mxGeometry width="50" height="50" relative="1" as="geometry">
            <mxPoint x="90" y="340" as="sourcePoint" />
            <mxPoint x="80" y="220" as="targetPoint" />
          </mxGeometry>
        </mxCell>
        <mxCell id="u0Y2jchmrEOMAnDfJ7o5-27" value="" style="endArrow=block;html=1;rounded=0;endFill=0;" edge="1" parent="1">
          <mxGeometry width="50" height="50" relative="1" as="geometry">
            <mxPoint x="240" y="160" as="sourcePoint" />
            <mxPoint x="90" y="160" as="targetPoint" />
            <Array as="points">
              <mxPoint x="160" y="160" />
            </Array>
          </mxGeometry>
        </mxCell>
        <mxCell id="u0Y2jchmrEOMAnDfJ7o5-29" value="" style="endArrow=block;html=1;rounded=0;endFill=0;" edge="1" parent="1">
          <mxGeometry width="50" height="50" relative="1" as="geometry">
            <mxPoint x="255" y="370" as="sourcePoint" />
            <mxPoint x="120" y="370" as="targetPoint" />
          </mxGeometry>
        </mxCell>
        <mxCell id="u0Y2jchmrEOMAnDfJ7o5-30" value="" style="endArrow=block;html=1;rounded=0;endFill=0;" edge="1" parent="1">
          <mxGeometry width="50" height="50" relative="1" as="geometry">
            <mxPoint x="274.47" y="340" as="sourcePoint" />
            <mxPoint x="274.47" y="220" as="targetPoint" />
          </mxGeometry>
        </mxCell>
        <mxCell id="u0Y2jchmrEOMAnDfJ7o5-31" value="" style="endArrow=none;startArrow=none;html=1;rounded=0;exitX=0.018;exitY=0.406;exitDx=0;exitDy=0;exitPerimeter=0;startFill=0;endFill=0;" edge="1" parent="1" source="u0Y2jchmrEOMAnDfJ7o5-9">
          <mxGeometry width="50" height="50" relative="1" as="geometry">
            <mxPoint x="490" y="170" as="sourcePoint" />
            <mxPoint x="290" y="160" as="targetPoint" />
          </mxGeometry>
        </mxCell>
        <mxCell id="u0Y2jchmrEOMAnDfJ7o5-32" value="" style="endArrow=none;html=1;rounded=0;endFill=0;" edge="1" parent="1">
          <mxGeometry width="50" height="50" relative="1" as="geometry">
            <mxPoint x="710" y="370" as="sourcePoint" />
            <mxPoint x="300" y="370" as="targetPoint" />
          </mxGeometry>
        </mxCell>
        <mxCell id="u0Y2jchmrEOMAnDfJ7o5-33" value="&amp;lt; &amp;lt;include&amp;gt; &amp;gt;" style="text;html=1;strokeColor=none;fillColor=none;align=center;verticalAlign=middle;whiteSpace=wrap;rounded=0;" vertex="1" parent="1">
          <mxGeometry x="720" y="245" width="100" height="30" as="geometry" />
        </mxCell>
        <mxCell id="u0Y2jchmrEOMAnDfJ7o5-34" value="&amp;lt; &amp;lt;Extend&amp;gt; &amp;gt;" style="text;html=1;strokeColor=none;fillColor=none;align=center;verticalAlign=middle;whiteSpace=wrap;rounded=0;" vertex="1" parent="1">
          <mxGeometry x="920" y="270" width="80" height="30" as="geometry" />
        </mxCell>
        <mxCell id="u0Y2jchmrEOMAnDfJ7o5-35" value="&amp;lt; &amp;lt;Extend&amp;gt; &amp;gt;" style="text;html=1;strokeColor=none;fillColor=none;align=center;verticalAlign=middle;whiteSpace=wrap;rounded=0;" vertex="1" parent="1">
          <mxGeometry x="770" y="460" width="80" height="30" as="geometry" />
        </mxCell>
        <mxCell id="u0Y2jchmrEOMAnDfJ7o5-36" value="" style="endArrow=none;html=1;rounded=0;entryX=1;entryY=0.5;entryDx=0;entryDy=0;" edge="1" parent="1" target="u0Y2jchmrEOMAnDfJ7o5-14">
          <mxGeometry width="50" height="50" relative="1" as="geometry">
            <mxPoint x="510" y="490" as="sourcePoint" />
            <mxPoint x="560" y="440" as="targetPoint" />
          </mxGeometry>
        </mxCell>
        <mxCell id="u0Y2jchmrEOMAnDfJ7o5-37" value="" style="endArrow=none;html=1;rounded=0;exitX=0;exitY=0.5;exitDx=0;exitDy=0;entryX=1;entryY=0.5;entryDx=0;entryDy=0;" edge="1" parent="1" source="u0Y2jchmrEOMAnDfJ7o5-13" target="u0Y2jchmrEOMAnDfJ7o5-13">
          <mxGeometry width="50" height="50" relative="1" as="geometry">
            <mxPoint x="710" y="370" as="sourcePoint" />
            <mxPoint x="760" y="320" as="targetPoint" />
          </mxGeometry>
        </mxCell>
      </root>
    </mxGraphModel>
  </diagram>
</mxfile>
